<svg xmlns="http://www.w3.org/2000/svg" viewBox="0 0 960 540" width="960" height="540" shape-rendering="crispEdges">
  <rect width="960" height="540" fill="#2f7d36"/>
  <g fill="#2a6e30">
    <rect x="0" y="0" width="960" height="540"/>
  </g>
  <g fill="#3a8f43">
    <rect x="8" y="8" width="8" height="8"/><rect x="40" y="16" width="8" height="8"/><rect x="120" y="12" width="8" height="8"/>
    <rect x="200" y="20" width="8" height="8"/><rect x="330" y="10" width="8" height="8"/><rect x="510" y="18" width="8" height="8"/>
    <rect x="700" y="22" width="8" height="8"/><rect x="840" y="30" width="8" height="8"/>
  </g>
  <g fill="#6d6f8f">
    <polygon points="20,180 80,70 140,180"/><polygon points="120,180 180,90 240,180"/><polygon points="220,180 280,60 340,180"/>
    <polygon points="320,180 380,95 440,180"/><polygon points="420,180 480,65 540,180"/><polygon points="520,180 580,85 640,180"/>
  </g>
  <g fill="#9fd0ff">
    <rect x="650" y="70" width="220" height="170"/>
  </g>
  <g fill="#8a5a38">
    <circle cx="80" cy="470" r="16"/><circle cx="200" cy="420" r="16"/><circle cx="320" cy="360" r="16"/><circle cx="430" cy="300" r="16"/>
    <circle cx="540" cy="290" r="16"/><circle cx="660" cy="240" r="16"/><circle cx="760" cy="180" r="16"/><circle cx="860" cy="120" r="16"/>
    <rect x="80" y="454" width="120" height="32"/><rect x="200" y="404" width="120" height="32"/><rect x="320" y="344" width="110" height="32"/>
    <rect x="430" y="284" width="110" height="30"/><rect x="540" y="274" width="120" height="30"/><rect x="660" y="224" width="100" height="30"/>
    <rect x="760" y="164" width="100" height="30"/>
  </g>
  <g fill="#216b2a">
    <circle cx="140" cy="300" r="25"/><circle cx="280" cy="470" r="20"/><circle cx="490" cy="420" r="22"/><circle cx="600" cy="470" r="20"/>
    <circle cx="770" cy="320" r="25"/><circle cx="900" cy="260" r="20"/>
  </g>
</svg>
