<svg xmlns="http://www.w3.org/2000/svg" viewBox="0 0 48 64" width="48" height="64" shape-rendering="crispEdges">
  <defs>
    <g id="p1"><rect x="5" y="2" width="6" height="5" fill="#ffd7aa"/><rect x="5" y="1" width="6" height="1" fill="#694c2a"/><rect x="4" y="7" width="8" height="6" fill="#3d7eff"/><rect x="4" y="13" width="2" height="3" fill="#25253d"/><rect x="9" y="13" width="2" height="3" fill="#25253d"/></g>
    <g id="p2"><rect x="5" y="2" width="6" height="5" fill="#ffd7aa"/><rect x="5" y="1" width="6" height="1" fill="#694c2a"/><rect x="4" y="7" width="8" height="6" fill="#3d7eff"/><rect x="6" y="13" width="2" height="3" fill="#25253d"/><rect x="9" y="13" width="2" height="3" fill="#25253d"/></g>
  </defs>
  <g transform="translate(0,0)"><use href="#p1"/></g>
  <g transform="translate(16,0)"><use href="#p2"/></g>
  <g transform="translate(32,0)"><use href="#p1"/></g>
  <g transform="translate(0,16)"><use href="#p1"/><rect x="5" y="5" width="1" height="1" fill="#000"/></g>
  <g transform="translate(16,16)"><use href="#p2"/><rect x="21" y="5" width="1" height="1" fill="#000"/></g>
  <g transform="translate(32,16)"><use href="#p1"/><rect x="37" y="5" width="1" height="1" fill="#000"/></g>
  <g transform="translate(0,32)"><use href="#p1"/><rect x="10" y="5" width="1" height="1" fill="#000"/></g>
  <g transform="translate(16,32)"><use href="#p2"/><rect x="26" y="5" width="1" height="1" fill="#000"/></g>
  <g transform="translate(32,32)"><use href="#p1"/><rect x="42" y="5" width="1" height="1" fill="#000"/></g>
  <g transform="translate(0,48)"><use href="#p1"/><rect x="6" y="4" width="4" height="1" fill="#000"/></g>
  <g transform="translate(16,48)"><use href="#p2"/><rect x="22" y="4" width="4" height="1" fill="#000"/></g>
  <g transform="translate(32,48)"><use href="#p1"/><rect x="38" y="4" width="4" height="1" fill="#000"/></g>
</svg>
